P2
50 50
255
61 67 74 78 78 78 77 73 69 68 68 68 68 67 66 66 71 76 78 77 79 84 87 89 86 78 67 63 68 74 79 77 75 76 77 78 76 73 78 80 82 80 77 74 73 73 69 68 65 62 
60 64 70 74 76 75 76 74 71 69 69 69 66 64 66 68 73 77 80 81 85 89 90 90 86 76 65 62 66 72 81 78 77 80 81 80 75 70 75 76 79 79 77 76 75 76 72 71 66 61 
57 60 65 69 72 73 77 75 72 70 70 67 64 61 66 71 76 80 84 88 92 94 91 90 85 75 66 62 64 69 81 80 81 82 84 81 75 71 74 76 78 78 76 75 74 75 73 72 68 62 
56 59 62 65 69 71 77 75 74 73 71 67 62 58 65 73 80 84 87 93 96 95 91 90 85 76 68 63 64 68 78 81 84 85 84 80 76 74 77 79 80 79 75 72 71 71 73 72 70 66 
57 58 61 64 68 71 77 76 75 74 71 66 61 56 63 73 83 86 89 96 97 94 91 89 84 78 70 65 65 67 74 79 84 84 80 76 75 76 76 78 80 78 75 72 71 71 72 73 72 69 
58 58 60 64 68 72 78 76 75 73 71 67 60 55 62 74 84 86 90 96 96 92 90 89 84 79 72 66 66 66 70 76 83 82 76 73 73 76 72 74 76 76 75 73 73 73 72 73 73 71 
63 66 68 69 70 68 77 77 76 73 69 64 58 55 61 72 83 87 89 91 89 85 85 78 75 75 73 68 67 68 74 73 73 74 77 77 73 69 73 75 77 76 73 71 72 73 72 73 69 63 
63 66 68 70 72 73 76 76 75 73 69 65 60 57 62 73 82 86 88 88 86 82 79 73 69 70 70 67 66 68 71 71 72 73 74 73 71 68 74 76 77 76 73 71 72 73 71 72 70 66 
63 64 67 71 74 76 74 74 73 71 69 65 60 58 63 73 81 86 87 88 85 80 71 65 63 65 67 65 66 68 66 68 70 70 69 68 68 69 73 74 75 75 72 71 71 72 67 69 68 66 
61 62 66 69 75 77 74 73 72 69 66 62 58 56 63 71 79 83 85 87 83 77 68 63 61 64 66 65 65 68 62 65 67 66 64 63 67 70 74 73 73 71 70 70 71 71 65 65 63 63 
60 61 64 68 73 76 75 74 71 67 64 60 57 55 62 69 76 80 83 85 82 76 70 64 62 64 65 63 64 66 61 63 65 64 62 63 67 71 74 72 70 69 69 69 69 69 64 60 57 59 
62 62 64 67 71 74 75 74 72 68 64 61 59 57 63 69 74 78 81 84 80 73 69 63 60 62 63 62 62 64 61 61 61 61 61 64 68 71 72 70 66 64 65 67 67 66 63 57 55 56 
64 63 65 68 71 72 75 74 72 70 67 66 65 65 67 71 75 76 79 80 75 67 63 58 56 58 60 60 60 62 61 59 57 57 60 65 68 69 70 66 63 62 64 65 65 63 63 56 54 59 
66 66 67 69 71 72 74 73 73 72 70 70 71 71 71 74 76 75 77 78 71 63 58 54 52 55 58 57 58 61 61 58 54 54 59 65 67 68 69 66 61 60 62 64 63 62 62 57 56 62 
64 63 62 63 66 67 67 69 70 72 72 72 72 72 68 72 77 76 71 65 61 61 60 58 56 54 54 56 58 59 55 57 56 55 59 67 69 67 66 66 64 63 62 62 62 63 60 65 68 65 
64 63 62 64 66 69 70 71 71 71 70 70 70 70 67 70 74 75 72 67 63 61 59 58 57 56 56 57 58 60 54 57 56 55 60 67 70 68 68 68 67 67 66 66 66 65 63 70 73 70 
63 62 62 64 67 71 74 72 70 68 66 66 67 67 68 69 71 72 73 70 64 60 59 58 58 59 59 58 58 59 55 56 56 55 61 68 70 68 70 71 71 71 71 70 70 69 67 74 77 74 
62 61 62 64 67 72 72 70 67 64 63 63 65 66 71 70 69 71 72 69 63 58 58 58 59 60 61 61 61 60 54 56 56 56 60 68 70 68 70 70 73 73 74 73 72 72 69 74 76 72 
62 61 63 65 67 71 69 67 63 62 62 62 63 65 73 71 69 70 71 68 61 56 59 60 61 62 63 63 62 62 56 59 59 59 62 70 71 68 70 70 72 72 73 73 73 73 69 72 71 67 
64 66 67 67 68 69 68 66 64 63 63 62 63 64 71 70 70 70 68 66 62 57 61 61 62 62 63 64 64 65 62 64 64 63 67 73 73 70 70 69 69 70 71 72 74 75 69 71 70 65 
70 73 72 71 70 70 71 70 68 67 65 64 62 62 66 68 69 69 67 65 64 63 63 63 63 63 64 65 67 68 69 72 71 70 73 78 77 72 71 70 68 67 68 72 76 77 71 75 75 71 
74 78 76 74 71 70 75 75 73 71 68 65 62 61 61 64 68 69 66 65 66 68 65 64 62 62 62 64 67 69 75 78 77 75 78 81 80 75 72 70 68 67 68 71 77 80 73 78 81 77 
68 70 71 73 74 76 78 77 73 70 68 66 64 64 69 68 68 69 71 71 69 67 73 69 64 63 66 71 76 77 79 76 75 75 77 77 76 75 73 72 70 68 68 70 75 79 76 79 82 80 
74 74 71 68 72 76 82 80 78 76 73 70 68 67 70 68 67 68 70 72 71 70 69 66 64 64 67 73 80 85 80 79 77 78 78 79 77 77 74 72 70 69 70 72 76 78 74 75 76 77 
80 78 71 66 70 75 78 78 77 76 74 70 66 65 68 66 66 67 69 72 73 73 67 68 69 68 68 72 80 88 82 80 78 78 78 78 77 76 74 71 68 69 73 76 77 77 74 73 74 76 
78 78 74 70 72 73 75 75 76 75 73 70 66 64 67 65 64 65 68 72 74 75 74 76 76 72 68 69 76 83 79 77 75 74 74 75 74 74 76 71 67 69 74 78 77 74 74 75 76 77 
71 74 77 77 75 73 77 77 78 78 76 73 69 67 66 65 63 64 68 72 74 75 78 80 80 75 69 69 75 81 76 73 70 69 70 72 73 73 75 71 68 71 75 78 75 72 71 75 79 77 
67 71 77 80 78 75 76 76 76 75 72 71 68 67 68 66 65 66 71 73 75 76 77 78 77 73 72 73 77 81 75 72 70 69 71 73 76 76 76 73 72 74 77 77 74 71 69 74 77 77 
67 69 73 76 78 78 75 75 74 72 70 68 68 67 71 70 70 72 75 78 78 76 76 75 74 73 73 75 79 81 80 77 74 74 77 81 84 85 77 78 79 79 78 77 74 73 73 74 76 81 
70 70 69 71 76 80 81 80 78 76 74 73 73 73 74 73 74 76 79 81 80 77 77 75 73 72 74 76 78 78 84 82 79 80 83 87 91 92 79 81 84 83 80 77 75 74 79 75 75 87 
63 65 73 80 80 77 77 79 80 81 82 83 78 72 76 79 77 73 74 81 82 78 78 79 78 75 72 74 82 88 77 83 87 85 88 94 94 89 89 85 83 84 83 78 74 75 72 79 83 84 
73 72 77 79 78 77 80 82 82 84 85 84 79 75 81 83 81 75 75 79 79 74 79 78 76 74 72 73 78 83 80 87 93 94 95 98 95 89 81 78 78 82 83 80 78 80 72 78 80 82 
82 80 79 80 80 80 84 83 84 86 87 85 82 78 82 84 83 78 76 78 77 73 79 78 75 73 72 73 76 77 77 86 94 98 100 97 90 82 77 76 77 80 81 79 78 81 74 78 78 78 
87 86 83 80 82 84 86 84 85 88 88 84 81 82 80 81 81 79 77 77 76 76 79 78 76 76 76 76 76 76 76 84 94 101 102 95 85 77 79 78 78 81 79 74 74 77 77 78 77 76 
89 86 81 78 81 84 85 83 84 89 88 82 83 85 82 82 83 80 77 73 73 75 78 79 80 80 80 79 79 79 78 86 96 103 104 95 85 78 81 80 81 82 78 73 72 76 81 80 78 77 
89 85 79 75 76 78 84 80 83 89 88 82 82 89 92 89 86 82 75 69 70 75 78 82 87 86 82 79 77 79 77 81 88 96 95 88 80 76 79 79 81 84 80 75 77 82 83 81 80 79 
86 82 77 75 76 77 82 79 82 89 89 82 85 94 98 92 88 85 76 69 70 77 79 87 93 91 81 75 74 77 75 74 79 85 85 79 74 75 78 79 83 86 83 78 81 87 83 81 80 81 
81 79 77 78 80 81 82 79 83 90 91 83 86 97 97 92 88 86 77 70 75 85 81 90 98 93 81 70 70 74 78 75 77 83 83 77 76 79 79 82 86 88 83 79 81 88 83 80 80 82 
76 77 77 75 80 86 86 85 85 87 86 82 84 89 95 95 94 88 81 77 77 80 88 91 92 87 81 74 70 70 77 79 79 80 81 81 82 83 80 83 86 83 78 76 79 83 80 84 85 86 
79 78 76 74 79 85 85 84 85 87 84 79 79 83 87 90 93 90 84 79 78 79 82 85 88 85 76 70 67 66 77 77 79 79 80 80 80 80 80 83 85 82 78 76 78 82 84 86 85 85 
80 77 74 73 78 86 84 83 85 86 83 76 74 77 79 85 90 91 86 81 79 78 79 82 86 84 77 70 66 66 76 76 78 79 78 79 79 78 79 82 83 81 76 75 78 81 84 86 84 82 
81 76 70 69 75 83 81 80 83 86 83 76 75 76 78 83 88 88 85 80 78 78 82 86 89 88 81 75 70 69 74 76 77 78 78 78 77 77 79 80 81 79 75 75 78 80 79 82 82 81 
87 79 70 68 71 76 78 79 81 86 83 79 77 80 81 84 86 84 80 77 79 80 85 89 91 90 83 77 73 72 72 74 76 78 79 78 78 77 79 79 79 76 75 76 79 81 76 80 83 84 
94 83 75 71 71 70 76 77 80 85 84 80 82 85 85 86 86 82 77 77 78 82 86 89 89 86 80 74 72 72 69 71 76 78 80 79 79 79 78 77 76 75 77 79 82 84 81 85 87 87 
90 82 77 78 76 71 78 76 79 83 82 80 81 87 84 85 85 82 78 78 79 83 86 88 86 82 75 70 69 70 67 70 75 78 81 81 82 81 78 76 75 75 78 82 85 87 89 90 88 84 
81 76 77 82 81 75 78 76 78 81 80 78 81 86 81 84 85 83 80 80 81 84 87 88 86 80 72 68 67 69 66 69 75 79 82 83 83 82 77 75 74 75 79 84 88 89 93 92 85 78 
78 78 79 81 84 85 82 80 77 78 81 84 83 82 87 83 82 84 82 79 78 81 91 82 76 75 72 63 58 58 62 68 73 78 85 91 88 80 77 67 65 68 68 80 93 94 91 87 80 75 
76 75 76 78 81 83 83 83 82 84 86 87 85 82 84 81 81 83 82 79 79 81 84 77 73 74 72 64 59 58 57 64 70 75 82 88 86 81 75 65 63 66 66 76 88 88 91 87 80 78 
74 72 73 75 79 82 80 81 81 83 84 83 80 78 81 78 79 82 82 78 77 80 76 72 71 72 71 65 59 58 53 61 67 71 77 83 84 82 72 63 61 64 62 71 82 81 88 85 80 81 
71 69 71 75 80 84 81 81 79 79 79 79 78 78 79 76 77 80 79 75 72 75 71 71 71 71 70 64 58 57 52 61 69 70 72 77 79 79 71 61 61 62 60 68 76 74 81 79 78 82 
